<?xml version="1.0" encoding="utf-8"?>
<!-- Generator: Adobe Illustrator 21.0.0, SVG Export Plug-In . SVG Version: 6.00 Build 0)  -->
<svg version="1.1" id="Layer_1" xmlns="http://www.w3.org/2000/svg" xmlns:xlink="http://www.w3.org/1999/xlink" x="0px" y="0px"
	 viewBox="0 0 359.9 82.8" style="enable-background:new 0 0 359.9 82.8;" xml:space="preserve">
<style type="text/css">
	.st0{fill:#ED1C24;}
</style>
<path class="st0" d="M242.7,0c17,0,33.9,0,51,0c0,5.7,0,11.3,0,17.1c-11.2,0-22.3,0-33.5,0c0,4.9,0,9.6,0,14.6c9.5,0,18.9,0,28.6,0
	c0,3.8,0,7.4,0,11c0,4.6,0,4.6-4.6,4.6c-7.3,0-14.6,0-21.9,0c-0.7,0-1.3,0-2.1,0c0,4-0.3,7.9,0.1,11.7c0.5,4,4,6.5,8.1,6.6
	c7.7,0,15.5,0,23.2,0c0.7,0,1.3,0,2.1,0c0,5.9,0,11.5,0,17.3c-0.6,0-1.1,0.1-1.7,0.1c-7.8,0-15.6,0.1-23.4,0
	c-12.9-0.1-23.2-8.6-25.5-21.1c-0.3-1.7-0.5-3.5-0.5-5.2c0-18.3,0-36.5,0-54.8C242.6,1.2,242.7,0.7,242.7,0z"/>
<path class="st0" d="M61.2,0c17.1,0,33.9,0,51,0c0,5.7,0,11.3,0,17.2c-11.2,0-22.4,0-33.7,0c0,4.9,0,9.6,0,14.4c9.5,0,19,0,28.5,0
	c0,5.3,0,10.4,0,15.6c-9.5,0-18.9,0-28.5,0c0,4-0.3,7.8,0.1,11.5c0.5,4.1,4,6.7,8.2,6.7c7.9,0,15.7,0,23.6,0c1.4,0,2,0.3,1.9,1.9
	c-0.1,5.1,0,10.2,0,15.4c-0.6,0.1-1.1,0.1-1.6,0.1c-7.9,0-15.8,0.1-23.7,0c-13.1-0.1-23.3-8.7-25.6-21.5c-0.2-1.3-0.3-2.6-0.3-3.9
	c0-18.6,0-37.2,0-55.7C61.1,1.2,61.2,0.7,61.2,0z"/>
<path class="st0" d="M119.9,0c17.1,0,33.9,0,51,0c0,5.7,0,11.3,0,17.2c-11.2,0-22.4,0-33.7,0c0,4.9,0,9.6,0,14.4c9.5,0,19,0,28.5,0
	c0,5.3,0,10.4,0,15.6c-9.5,0-18.9,0-28.5,0c0,4-0.3,7.8,0.1,11.5c0.5,4.1,4,6.7,8.2,6.7c7.9,0,15.7,0,23.6,0c1.4,0,2,0.3,1.9,1.9
	c-0.1,5.1,0,10.2,0,15.4c-0.6,0.1-1.1,0.1-1.6,0.1c-7.9,0-15.8,0.1-23.7,0c-13.1-0.1-23.3-8.7-25.6-21.5c-0.2-1.3-0.3-2.6-0.3-3.9
	c0-18.6,0-37.2,0-55.7C119.9,1.2,119.9,0.7,119.9,0z"/>
<path class="st0" d="M359.2,80.6c-3.3-9.7-6.5-19.4-9.9-29.2c-0.4-1.2-0.2-1.8,0.7-2.7c5.9-5,9.3-11.3,9.8-19.1
	c1-16.6-11.4-29.6-28-29.7c-8.8,0-17.7,0-26.5,0c-0.7,0-1.3,0-2.1,0c0,27.7,0,55.1,0,82.7c0.6,0,1.2,0.1,1.7,0.1c4.5,0,9-0.1,13.5,0
	c1.6,0,2-0.5,2-2c-0.1-7.8,0-15.6,0-23.4c0-0.7,0.1-1.4,0.1-2.3c4.4,0,8.6,0.1,12.7,0c1.4,0,2,0.4,2.5,1.8
	c2.7,8.1,5.5,16.1,8.1,24.2c0.4,1.3,1,1.7,2.4,1.7c2.7-0.1,5.5,0,8.2,0c1.8,0,3.5,0,5.5,0C359.6,81.8,359.4,81.2,359.2,80.6z
	 M332.7,37.9c-3.7,0.2-7.3,0.1-11,0c-0.5,0-1.3-0.7-1.3-1c-0.1-6.4-0.1-12.8-0.1-19.4c4.7,0,9.2-0.3,13.7,0.1
	c5.1,0.5,8.9,5.5,8.7,10.3C342.4,33.4,338.3,37.7,332.7,37.9z"/>
<path class="st0" d="M17.4,82.8c-0.2-3.2,0-32.1,0-35.5c9.5,0,19,0,28.5,0c0-5.3,0-10.4,0-15.6c-9.6,0-19,0-28.5,0
	c0-4.9,0-9.5,0-14.4c11.3,0,22.4,0,33.7,0c0-5.9,0-11.5,0-17.2c-17,0-33.9,0-51,0C0,0.7,0,1.2,0,1.7c0,18.5,0,62.6,0,81.1H17.4z"/>
<path class="st0" d="M178.4,0v67.2v11v4.6l17.4-5.3v0L233,66.2c1.4-0.4,2.4-1.8,2.4-3.3V23.4c0,0,0.1-6.4-5.5-13.9
	c-7.2-9.6-16.6-9.4-16.6-9.4L195.8,0v0H178.4z M195.8,59.4V17.6h11.1c0,0,5.4-0.2,9,3.6c2.3,2.4,2,7,2,7v21.9c0,1.5-1,2.9-2.5,3.3
	L195.8,59.4z"/>
</svg>
